# AST/ASF file generated using VICON BodyLanguage
# -----------------------------------------------
:version 1.10
:name VICON
:units
  mass 1.0
  length 0.45
  angle deg
:documentation
   .ast/.asf automatically generated from VICON data using
   VICON BodyBuilder and BodyLanguage model FoxedUp or BRILLIANT.MOD
:root
   order TX TY TZ RX RY RZ
   axis XYZ
   position 0 0 0  
   orientation 0 -0 0 
:bonedata
  begin
     id 1 
     name lhipjoint
     direction 0.515797 -0.759363 0.396637 
     length 2.47888 
     axis 0 -0 0  XYZ
  end
  begin
     id 2 
     name lfemur
     direction 0.34202 -0.939693 0  
     length 6.81885  
     axis 0 -0 20  XYZ
    dof rx ry rz
    limits (-160.0 20.0)
           (-70.0 70.0)
           (-60.0 70.0)
  end
  begin
     id 3 
     name ltibia
     direction 0.342037 -0.939687 0   
     length 7.89258   
     axis 0 -0 20   XYZ
    dof rx
    limits (-10.0 170.0)
  end
  begin
     id 4 
     name lfoot
     direction 0.173497 -0.476678 0.861787   
     length 2.51543   
     axis -90 -1.13533e-015 20   XYZ
    dof rx rz
    limits (-45.0 90.0)
           (-70.0 20.0)
  end
  begin
     id 5 
     name ltoes
     direction 1.53564e-011 -4.21897e-011 1   
     length 1.21388   
     axis -90 -1.13533e-015 20   XYZ
    dof rx
    limits (-90.0 20.0)
  end
  begin
     id 6 
     name rhipjoint
     direction -0.489454 -0.772941 0.403729   
     length 2.43534  
     axis 0 -0 0  XYZ 
  end
  begin
     id 7 
     name rfemur
     direction -0.34202 -0.939693 0   
     length 7.10357   
     axis 0 -0 -20   XYZ
    dof rx ry rz
    limits (-160.0 20.0)
           (-70.0 70.0)
           (-70.0 60.0)
  end
  begin
     id 8 
     name rtibia
     direction -0.34202 -0.939693 0   
     length 9.16127   
     axis 0 -0 -20   XYZ
    dof rx
    limits (-10.0 170.0)
 end
 begin
     id 9 
     name rfoot
     direction -0.270974 -0.748671 0.605033   
     length 1.74894  
     axis -90 1.13533e-015 -20   XYZ
    dof rx rz
    limits (-45.0 90.0)
           (-20.0 70.0)
  end
  begin
     id 10 
     name rtoes
     direction -1.53557e-011 -4.21759e-011 1   
     length 0.787585   
     axis -90 1.13533e-015 -20   XYZ
    dof rx
    limits (-90.0 20.0)
  end
  begin
     id 11 
     name lowerback
     direction -0.0140249 0.999561 0.0260968   
     length 2.16963   
     axis 0 -0 0   XYZ
    dof rx ry rz
    limits (-20.0 45.0)
           (-30.0 30.0)
           (-30.0 30.0)
  end
  begin
     id 12 
     name upperback
     direction 0.00860018 0.999959 -0.002711   
     length 2.1726   
     axis 0 -0 0   XYZ
    dof rx ry rz
    limits (-20.0 45.0)
           (-30.0 30.0)
           (-30.0 30.0)
  end
  begin
     id 13 
     name thorax
     direction 0.015211 0.999782 -0.0143191   
     length 2.17061   
     axis 0 -0 0   XYZ
    dof rx ry rz
    limits (-20.0 45.0)
           (-30.0 30.0)
           (-30.0 30.0)
  end
  begin
     id 14 
     name lowerneck
     direction -0.0140143 0.999447 0.030145   
     length 2.26749   
     axis 0 -0 0   XYZ
    dof rx ry rz
    limits (-20.0 45.0)
           (-30.0 30.0)
           (-30.0 30.0)
  end
  begin
     id 15 
     name upperneck
     direction 0.118062 0.961438 -0.248392   
     length 2.22728   
     axis 0 -0 0   XYZ
    dof rx ry rz
    limits (-20.0 45.0)
           (-30.0 30.0)
           (-30.0 30.0)
  end
  begin
     id 16
     name head
     direction 0.0431885 0.9954 -0.085514  
     length 2.28786  
     axis 0 -0 0   XYZ
    dof rx ry rz
    limits (-20.0 45.0)
           (-30.0 30.0)
           (-30.0 30.0)
  end
  begin
     id 17 
     name lclavicle
     direction 0.912126 0.409548 0.0172323  
     length 4.31571  
     axis 0 -0 0   XYZ
    dof ry rz
    limits (-20.0 10.0)
           (0.0 20.0)
  end
  begin
     id 18 
     name lhumerus
     direction 1 -4.48977e-011 1.93091e-027   
     length 5.13658   
     axis 180 -30 -90   XYZ
    dof rx ry rz
    limits (-60.0 90.0)
           (-90.0 90.0)
           (-90.0 90.0)
  end
  begin
     id 19
     name lradius
     direction 1 -4.48916e-011 6.84018e-027   
     length 3.22473   
     axis 180 -30 -90   XYZ
    dof rx
    limits (-10.0 170.0)
  end
  begin
     id 20
     name lwrist
     direction 1 -4.48987e-011 7.01981e-027   
     length 1.61236   
     axis -4.37994e-015 90 90   XYZ
    dof ry
    limits (-180.0 0.0)
 end
  begin
     id 21 
     name lhand
     direction 1 -4.49037e-011 1.40335e-026   
     length 0.936406   
     axis -8.96029e-015 90 90   XYZ
    dof rx rz
    limits (-90.0 90.0)
           (-45.0 45.0)
  end
  begin
     id 22 
     name lfingers
     direction 1 -4.48886e-011 2.8104e-026   
     length 0.754955   
     axis -1.79203e-014 90 90   XYZ
    dof rx
    limits (0.0 90.0)
  end
  begin
     id 23
     name lthumb
     direction 0.707107 -6.34937e-011 0.707107   
     length 1.08397   
     axis -90 45 -4.48555e-014   XYZ
    dof rx rz
    limits (-45.0 45.0)
           (-45.0 45.0)
  end
  begin
     id 24 
     name rclavicle
     direction -0.947962 0.317997 0.0156638   
     length 4.86918  
     axis 0 -0 0   XYZ 
    dof ry rz
    limits (-10.0 20.0)
           (-20.0 0.0)
  end
  begin
     id 25 
     name rhumerus
     direction -1 -4.48951e-011 2.80534e-018  
     length 5.60911   
     axis 180 30 90   XYZ
    dof rx ry rz
    limits (-90.0 60.0)
           (-90.0 90.0)
           (-90.0 90.0)
  end
  begin
     id 26 
     name rradius
     direction -1 -4.4898e-011 2.11315e-027   
     length 3.38704   
     axis 180 30 90   XYZ
    dof rx
    limits (-10.0 170.0)
  end
  begin
     id 27 
     name rwrist
     direction -1 -4.48933e-011 7.02314e-027   
     length 1.69352   
     axis -4.37994e-015 -90 -90   XYZ
    dof ry
    limits (-180.0 0.0)
  end
  begin
     id 28
     name rhand
     direction -1 -4.48937e-011 1.40458e-026   
     length 0.755878   
     axis -8.96029e-015 -90 -90   XYZ
    dof rx rz
    limits (-90.0 90.0)
           (-45.0 45.0)
  end
  begin
     id 29
     name rfingers
     direction -1 -4.4901e-011 2.80737e-026   
     length 0.609409   
     axis -1.79203e-014 -90 -90   XYZ
    dof rx
    limits (0.0 90.0)
  end
  begin
     id 30
     name rthumb
     direction -0.707107 -6.34968e-011 0.707107   
     length 0.874992   
     axis -90 -45 4.48555e-014   XYZ
    dof rx rz
    limits (-45.0 45.0)
           (-45.0 45.0)
  end
:hierarchy
  begin
    root lhipjoint rhipjoint lowerback
    lhipjoint lfemur
    lfemur ltibia
    ltibia lfoot
    lfoot ltoes
    rhipjoint rfemur
    rfemur rtibia
    rtibia rfoot
    rfoot rtoes
    lowerback upperback
    upperback thorax
    thorax lowerneck lclavicle rclavicle
    lowerneck upperneck
    upperneck head
    lclavicle lhumerus
    lhumerus lradius
    lradius lwrist
    lwrist lhand lthumb
    lhand lfingers
    rclavicle rhumerus
    rhumerus rradius
    rradius rwrist
    rwrist rhand rthumb
    rhand rfingers
  end

#!OML:ASF C:\ViconDB\ViconDB\414\Spring2016\041811\Spring2016.ASF
:FULLY-SPECIFIED
:DEGREES
107
root 9.85735 17.7793 -1.52205 -178.503 -7.64948 -179.601
lowerback 1.77514 0.0317142 -1.8691
upperback 0.699117 -0.000787078 1.27023
thorax -0.278887 -0.0114232 2.35044
lowerneck -10.4689 -1.32657 -7.43568
upperneck 18.5789 -3.81301 12.4572
head 7.79018 -1.55719 4.98471
rclavicle 1.49089e-016 -2.38542e-015
rhumerus -43.1392 -20.8621 -79.6727
rradius 33.4165
rwrist 42.5916
rhand -35.8908 -13.7916
rfingers 7.12502
rthumb -9.00444 -43.5794
lclavicle 1.49089e-016 -2.38542e-015
lhumerus -38.745 -13.2161 98.4996
lradius 36.7373
lwrist -25.7563
lhand -27.1273 14.2508
lfingers 7.12502
lthumb -0.543057 44.2299
rfemur 187.628 42.39 -153.439
rtibia 29.6096
rfoot -41.6897 -53.3288
rtoes 5.56597e-014
lfemur 16.8281 -10.7451 -22.333
ltibia 4.85538
lfoot -19.8943 3.48663
ltoes -5.32743e-014
108
root 9.88886 17.7703 -1.63937 -178.687 -7.60043 -179.474
lowerback 1.9138 -0.0234799 -1.65971
upperback 0.715821 -0.0749998 1.32827
thorax -0.335656 -0.0490119 2.29403
lowerneck -10.4315 -1.53322 -7.60345
upperneck 18.5753 -4.09828 12.5291
head 7.81855 -1.70307 5.00947
rclavicle -5.56597e-015 -5.96354e-016
rhumerus -43.2522 -20.9808 -79.6605
rradius 33.4448
rwrist 42.868
rhand -35.7371 -13.895
rfingers 7.12502
rthumb -8.8561 -43.6892
lclavicle -5.56597e-015 -5.96354e-016
lhumerus -38.7465 -12.7041 98.2343
lradius 36.3244
lwrist -26.3448
lhand -27.2195 14.2354
lfingers 7.12502
lthumb -0.632127 44.2142
rfemur 186.411 41.6591 -154.104
rtibia 29.8645
rfoot -40.6325 -53.736
rtoes 4.37326e-014
lfemur 16.622 -10.6341 -22.0999
ltibia 6.32081
lfoot -20.2563 3.38443
ltoes 8.74653e-015
109
root 9.92227 17.7667 -1.75125 -178.895 -7.50075 -179.168
lowerback 2.10338 -0.0145075 -1.27126
upperback 0.773629 -0.0626707 1.42911
thorax -0.383686 -0.044971 2.1792
lowerneck -10.4163 -1.72438 -7.94605
upperneck 18.4082 -4.36952 12.912
head 7.8063 -1.82716 5.1695
rclavicle 2.35933e-014 -2.8625e-014
rhumerus -43.2017 -20.9798 -79.8721
rradius 33.4316
rwrist 42.3057
rhand -35.8593 -14.0784
rfingers 7.12502
rthumb -8.97405 -43.8675
lclavicle 2.35933e-014 -2.8625e-014
lhumerus -38.6448 -12.3772 98.0582
lradius 35.9127
lwrist -26.7555
lhand -27.2709 14.4536
lfingers 7.12502
lthumb -0.681754 44.4323
rfemur 185.092 40.6355 -154.65
rtibia 30.2194
rfoot -38.8468 -54.0481
rtoes 5.08889e-014
lfemur 16.4645 -10.486 -21.613
ltibia 7.61243
lfoot -20.4152 3.01901
ltoes 6.52014e-014
110
root 9.95581 17.77 -1.86881 -179.047 -7.2974 -178.951
lowerback 2.22575 -0.0267095 -1.10081
upperback 0.812575 -0.0813479 1.58557
thorax -0.41147 -0.0568879 2.24481
lowerneck -10.4407 -1.91156 -8.14073
upperneck 18.342 -4.58948 12.9446
head 7.81999 -1.94016 5.19074
rclavicle 2.78795e-014 7.7526e-015
rhumerus -43.1587 -20.9684 -79.9058
rradius 33.4043
rwrist 42.2097
rhand -35.8558 -14.3556
rfingers 7.12502
rthumb -8.97069 -44.1449
lclavicle 2.78795e-014 7.7526e-015
lhumerus -38.5843 -11.5043 97.7465
lradius 35.4296
lwrist -27.4524
lhand -27.4494 14.375
lfingers 7.12502
lthumb -0.854087 44.353
rfemur 183.899 39.8958 -155.04
rtibia 30.6519
rfoot -37.6016 -54.353
rtoes -1.06549e-013
lfemur 16.2839 -10.2307 -21.2465
ltibia 8.88198
lfoot -20.4607 2.90816
ltoes -9.54166e-014
